<?xml version="1.0" encoding="iso-8859-1"?>
<!-- Generator: Adobe Illustrator 19.0.0, SVG Export Plug-In . SVG Version: 6.00 Build 0)  -->
<svg version="1.1" id="Layer_1" xmlns="http://www.w3.org/2000/svg" xmlns:xlink="http://www.w3.org/1999/xlink" x="0px" y="0px"
	 viewBox="0 0 512 512" style="enable-background:new 0 0 512 512;" xml:space="preserve">
<g>
	<path style="fill:#3D7A94;" d="M12.743,114.533c-2.179,0-4.386-0.564-6.4-1.749c-6.017-3.54-8.024-11.289-4.482-17.304
		c3.66-6.22,7.885-12.196,12.555-17.761c21.839-26.116,52.54-42.439,86.435-45.947c33.834-3.495,67.189,6.138,93.912,27.139
		c5.488,4.313,6.443,12.258,2.129,17.748c-4.313,5.491-12.258,6.444-17.749,2.129C134.251,43.507,70.407,50.171,33.796,93.951
		c-3.787,4.511-7.196,9.334-10.147,14.351C21.293,112.303,17.075,114.533,12.743,114.533z"/>
	<path style="fill:#3D7A94;" d="M499.257,114.533c-4.332,0-8.55-2.228-10.904-6.231c-2.951-5.017-6.362-9.839-10.133-14.335
		c-36.628-43.796-100.472-50.458-145.364-15.182c-5.488,4.313-13.435,3.36-17.749-2.129c-4.314-5.489-3.36-13.435,2.129-17.748
		c26.726-21,60.078-30.634,93.912-27.139c33.895,3.506,64.596,19.829,86.45,45.962c4.656,5.549,8.881,11.525,12.541,17.745
		c3.54,6.017,1.533,13.765-4.482,17.304C503.643,113.969,501.436,114.533,499.257,114.533z"/>
</g>
<path style="fill:#FC7576;" d="M312.726,396.152H199.274l-30.418,16.643c9.683,39.128,45.023,68.137,87.144,68.137
	s77.459-29.01,87.144-68.137L312.726,396.152z"/>
<path style="fill:#F9545B;" d="M199.274,409.21c24.415,0,33.926,20.477,56.726,20.477s32.311-20.477,56.726-20.477
	c26.412,0,47.973,9.979,64.829,7.852c-43.464,0-59.286-85.279-121.556-44.102c-62.27-41.178-78.092,44.102-121.556,44.102
	C151.301,419.188,172.862,409.21,199.274,409.21z"/>
<path style="fill:#FD3B6D;" d="M402.701,400.271c-4.936-4.935-12.939-4.935-17.876,0c-6.216,6.22-14.201,5.28-33.77,1.237
	c-11.214-2.316-23.925-4.94-38.33-4.94c-16.011,0-27.117,6.871-36.044,12.392c-7.303,4.516-13.071,8.084-20.682,8.084
	s-13.379-3.568-20.682-8.084c-8.926-5.521-20.033-12.392-36.044-12.392c-14.406,0-27.116,2.624-38.33,4.94
	c-19.57,4.04-27.552,4.98-33.77-1.237c-4.936-4.935-12.939-4.935-17.876,0c-4.936,4.936-4.936,12.939,0,17.876
	c16.443,16.443,36.939,12.211,56.758,8.12c10.518-2.173,21.394-4.418,33.217-4.418c8.823,0,14.967,3.801,22.745,8.611
	c8.992,5.561,19.183,11.866,33.981,11.866c14.797,0,24.99-6.303,33.981-11.866c7.777-4.811,13.921-8.611,22.745-8.611
	c11.823,0,22.7,2.245,33.217,4.418c19.822,4.091,40.313,8.325,56.758-8.12C407.637,413.212,407.637,405.209,402.701,400.271z"/>
<path style="fill:#0E4675;" d="M509.684,196.454c-5.867-8.309-12.709-15.938-20.34-22.675c-0.159-0.142-0.324-0.281-0.49-0.413
	c-4.954-3.964-11.993-3.605-16.516,0.624c-39.707,34.857-99.418,34.786-139.038-0.225c-5.232-4.622-13.219-4.131-17.841,1.101
	c-4.622,5.232-4.129,13.219,1.102,17.841c3.254,2.874,6.622,5.548,10.08,8.041c-2.29,4.107-4.842,8.067-7.656,11.83
	c-4.18,5.592-3.035,13.511,2.557,17.691c2.27,1.698,4.924,2.517,7.557,2.517c3.85,0,7.652-1.753,10.135-5.075
	c3.393-4.539,6.479-9.307,9.257-14.249c4.783,2.192,9.663,4.107,14.628,5.69c-0.909,4.61-2.112,9.161-3.623,13.605
	c-2.247,6.609,1.289,13.787,7.899,16.036c1.349,0.458,2.721,0.676,4.07,0.676c5.263,0,10.178-3.314,11.966-8.575
	c1.828-5.376,3.291-10.877,4.409-16.449c5.018,0.58,10.061,0.901,15.107,0.901c0.185,0,0.368-0.01,0.551-0.011
	c0.564,4.678,0.827,9.39,0.762,14.095c-0.095,6.98,5.487,12.716,12.467,12.81c0.058,0.001,0.116,0.001,0.176,0.001
	c6.9,0,12.541-5.548,12.635-12.468c0.077-5.666-0.229-11.34-0.886-16.974c5.119-1.023,10.186-2.359,15.177-3.998
	c1.976,4.266,3.678,8.658,5.07,13.143c1.681,5.422,6.675,8.901,12.068,8.901c1.239,0,2.501-0.185,3.746-0.57
	c6.667-2.068,10.398-9.149,8.33-15.816c-1.675-5.404-3.715-10.696-6.075-15.84c4.529-2.549,8.94-5.388,13.201-8.519
	c3.194,3.444,6.159,7.098,8.867,10.932c4.027,5.703,11.913,7.062,17.616,3.035C512.351,210.043,513.711,202.157,509.684,196.454z"/>
<g>
	<path style="fill:#F9545B;" d="M231.294,297.975c-1.612,0-3.25-0.311-4.832-0.966l-15.705-6.504
		c-6.45-2.672-9.511-10.066-6.841-16.515c2.672-6.45,10.068-9.508,16.514-6.841l15.705,6.504c6.45,2.672,9.511,10.066,6.841,16.515
		C240.961,295.036,236.254,297.975,231.294,297.975z"/>
	<path style="fill:#F9545B;" d="M280.649,297.975c-4.96,0-9.666-2.939-11.683-7.806c-2.672-6.45,0.392-13.843,6.841-16.514
		l15.704-6.504c6.45-2.672,13.843,0.391,16.515,6.839c2.672,6.449-0.392,13.843-6.841,16.514l-15.704,6.504
		C283.9,297.664,282.26,297.975,280.649,297.975z"/>
</g>
<path style="fill:#0E4675;" d="M196.54,174.866c-4.621-5.23-12.609-5.722-17.841-1.101c-39.635,35.027-99.382,35.084-139.088,0.179
	c-4.525-4.183-11.531-4.524-16.467-0.576c-0.179,0.143-0.354,0.291-0.525,0.444c-7.614,6.728-14.446,14.347-20.303,22.643
	c-4.027,5.703-2.667,13.589,3.035,17.616c5.701,4.026,13.589,2.668,17.616-3.035c2.707-3.834,5.673-7.489,8.867-10.932
	c4.262,3.132,8.672,5.971,13.201,8.519c-2.36,5.144-4.4,10.437-6.075,15.84c-2.068,6.666,1.662,13.748,8.33,15.816
	c1.246,0.387,2.506,0.57,3.746,0.57c5.393,0,10.389-3.48,12.068-8.901c1.392-4.486,3.093-8.877,5.069-13.142
	c4.99,1.639,10.057,2.975,15.177,3.997c-0.657,5.634-0.963,11.306-0.886,16.974c0.094,6.923,5.735,12.468,12.635,12.468
	c0.058,0,0.118,0,0.176-0.001c6.98-0.095,12.561-5.829,12.467-12.81c-0.064-4.706,0.198-9.417,0.762-14.095
	c0.185,0.001,0.368,0.011,0.551,0.011c5.046,0,10.089-0.321,15.107-0.901c1.116,5.572,2.58,11.074,4.409,16.449
	c1.789,5.261,6.702,8.575,11.966,8.575c1.349,0,2.721-0.219,4.07-0.676c6.609-2.247,10.145-9.427,7.899-16.036
	c-1.51-4.444-2.715-8.994-3.624-13.605c4.965-1.585,9.844-3.499,14.628-5.692c2.779,4.943,5.866,9.712,9.259,14.25
	c2.482,3.322,6.283,5.075,10.135,5.075c2.632,0,5.287-0.819,7.557-2.517c5.592-4.18,6.737-12.099,2.557-17.691
	c-2.812-3.764-5.366-7.723-7.656-11.83c3.457-2.495,6.825-5.167,10.079-8.041C200.669,188.085,201.162,180.098,196.54,174.866z"/>
<g>
</g>
<g>
</g>
<g>
</g>
<g>
</g>
<g>
</g>
<g>
</g>
<g>
</g>
<g>
</g>
<g>
</g>
<g>
</g>
<g>
</g>
<g>
</g>
<g>
</g>
<g>
</g>
<g>
</g>
</svg>
