<svg xmlns="http://www.w3.org/2000/svg" width="50.012" height="84.081" viewBox="0 0 2337 3929">
  <metadata><?xpacket begin="﻿" id="W5M0MpCehiHzreSzNTczkc9d"?>
<x:xmpmeta xmlns:x="adobe:ns:meta/" x:xmptk="Adobe XMP Core 6.0-c002 79.164360, 2020/02/13-01:07:22        ">
   <rdf:RDF xmlns:rdf="http://www.w3.org/1999/02/22-rdf-syntax-ns#">
      <rdf:Description rdf:about=""
            xmlns:xmp="http://ns.adobe.com/xap/1.0/">
         <xmp:CreatorTool>Adobe Photoshop CC 2018 (Windows)</xmp:CreatorTool>
      </rdf:Description>
   </rdf:RDF>
</x:xmpmeta>                        
<?xpacket end="w"?></metadata>
<defs>
<!-- SVG PATH CLASS- 'cls-1' TO CHANGE COLOR -->
    <style>    
      .cls-1 {
        fill-rule: evenodd;
        fill:#ffc107;
      }
    </style>
  </defs>
  <path id="Color_Fill_1" data-name="Color Fill 1" class="cls-1" d="M259.76,722.808s-162.8,122-81.257,367.282c0,0-3.28,24.29-40.629,8.17,0,0-.708,21.68,40.629,24.48S78.857,1251.3,48.491,1269.66c0,0-27.6,15.01,81.257,81.61,0,0,20.293,21.62-24.377,32.65,0,0-8.263,53.86,73.132,65.3,0,0-45.093,4.4-48.755,16.32,0,0-31.69,25.96,32.5,57.13,0,0,19.913,32.76-8.125,81.62s83.162,77.15,97.508,65.3c0,0,158.721-53.45,186.891-32.65,0,0,153.07,35.83,203.143,334.64,0,0,41.851,232.19-398.16,538.68,0,0,451.68-197.86,601.3-489.71,0,0,131.595-217.14-162.514-538.68C682.3,1481.87,232.815,1044.89,259.76,722.808ZM1259.22,2240.92s-49.21,117.52-333.152,277.51c0,0,384.932-105.66,536.292-269.35,0,0,208.62-176.94-24.37-416.25,0,0-153.89-149.17-406.29-277.51,0,0,389.12,267.36,146.27,628.47,0,0-78.52,128.35-211.274,212.21,0,0,302.1-199.7,178.764-522.36,0,0-80.28-198.52-349.4-350.97,0,0,543.043,520.3-511.92,1036.57,0,0-383.29,264.99-203.143,603.98,0,0,18.283,166.57,430.663,342.8,0,0-689.19-391.08,56.88-775.38,0,0-351.606,79.43-438.789,326.47,0,0-113.42-270.32,576.926-481.55,0,0,374.3-139.99,520.046-350.96,0,0,117.88-105.46,81.26-318.32C1307.98,1906.28,1363.39,2121.61,1259.22,2240.92ZM877.314,2665.34S629.442,2875,893.565,3065.27l154.385,73.46s147.05,61.82,203.15,138.75c0,0,86.43,125.18-16.26,253.02,0,0,132.58-120.6,56.88-285.66,0,0-30.63-89.55-251.89-187.73,0,0-147.1-72.82-178.768-155.07C861.062,2902.04,777.775,2778.12,877.314,2665.34Zm-56.88-16.32s-519.193,190.73-455.04,489.71c0,0,23.848,170.33,357.531,326.48,0,0,352.625,206.81,8.126,440.74,0,0,823.469-413.97,268.148-734.57,0,0,254.331,262.27,0,440.74,0,0,117.431-134.54-276.274-318.31,0,0-341.47-175.6-154.388-440.75,0,0-114.938,217.14,260.022,408.1C828.559,3261.16,358.2,2951.49,820.434,2649.02ZM1121.08,2502.1s-245.358,149.01-211.263,293.83c0,0,.132,108.29,178.763,204.05l154.39,81.62s120.43,66.79,154.39,114.26c0,0,145.96,133.84-32.5,253.02,0,0,350.91-130.28,325.02-301.99,0,0-4.3-132.84-260.02-228.53,0,0,383.71,183.94,105.64,383.61,0,0,128.3-159.79-219.4-318.31C1316.1,2983.66,726.75,2792.39,1121.08,2502.1Zm292.53,0s-194.25,161.08-65.01,318.32c0,0,82.19,105.41,260.03,57.13,0,0,130.85-30.95,73.13-195.89,0,0,59.66,170.05-113.76,146.92,0,0-130.23,2.37-178.77-146.92C1389.23,2681.66,1354.83,2615.27,1413.61,2502.1ZM332.891,616.7S258.044,945.715,625.417,1253.33c0,0,160.02,143.65,390.033,244.86,0,0,644.29,280.51,609.43,595.82,0,0,17.72,125.7-170.64,244.86,0,0-363.1,190.74-333.16,285.66,0,0-2.43,83.3,105.64,122.43,0,0-93.28-45.62-48.75-122.43,0,0-12.49-53.93,211.26-155.07l276.28-106.11s375.93-112.13,170.64-416.26c0,0-40.62-96.95-162.52-187.72,0,0,476.05,253.81,260.03,522.36,0,0,250.98-114.54,325.02-285.66,0,0,142.63-224.48-422.53-538.69,0,0,544.38,285.56,284.4,571.33,0,0,61.22-182.35-130.01-301.99,0,0-262.17-185.41-788.2-310.15C1202.34,1416.57,304.816,1219.02,332.891,616.7Zm16.252-8.162S452,413.922,584.142,367.428c0,0,314.237-78.266,651.848,141.779,0,0,335.01,276.684,145.12,703.313,0,0,183.39-355.955-251.9-693.759C1129.21,518.761,638.242,176.939,349.143,608.541ZM997.032,13.892c16.278,48.979-8.261,64.749-8.261,64.749,24.4,12.922,15.609,35.259,15.609,35.259-28.269,57.818-8.991,35.9-8.991,35.9,8.811-17.1,17.931-25.7,17.931-25.7,11.9-14.029,28.69-.745,28.69-0.745,20.04,16.4,5.47,35.037,5.47,35.037-18.65,20.66-34.65,22.977-34.65,22.977,14.56-3.9,39.18-15.816,39.18-15.816,16.56-5.847,29.65,8.692,29.65,8.692,12.78,19-4.67,34.815-4.67,34.815-25.49,22.54-59.13,18.518-59.13,18.518,81.19,2.291,90.1,43.256,79.97,71.192-8.78,24.193-35.19,20.808-35.19,20.808s13.91-8.558.57-34.709c-7.75-19.162-36.21-29.628-36.21-29.628-50.285-10.805-58.725,44.225-58.725,44.225h0c89.975,21.824,149.885,59.187,149.885,59.187,30.01,8.847,40.49-40.112,40.49-40.112,2.21-15.883,4.22-14.424,4.22-14.424,9.97-2.656,18.87,2.179,18.87,2.179,12.62,4.221,25.98,16.065,25.98,16.065,8.74,8.085,5.45,16.017,4.52,16.38-4.32-3.64-11.55,1.513-11.55,1.513-14.2,7.632-19.33,27.433-19.33,27.433-5.46,19.086-.89,22.343-0.89,22.343h0c44.85,31.637,76.79,59.551,76.79,59.551a47.185,47.185,0,0,1,6.21,7.2l43.55-51.824c8.73-10.667.85-23.339,0.85-23.339-6.51-16.161-38.61-1.41-38.61-1.41-20.65,5.961-17.04-5.866-17.04-5.866a73.034,73.034,0,0,1,11.03-22.121,43.408,43.408,0,0,1,14.65-12.588c11.08-5.358,12.94,3.464,12.94,3.464a54.26,54.26,0,0,0,.83,12.541c2.8,12.22,21.16,19.247,21.16,19.247-24.67-24.662-14.85-44.016-8.58-47.236,12.35-6.33,8.25,9.69,8.25,9.69-2.14,28.287,11.15,43.456,11.15,43.456-5.89-5.6-3.63-38.287-3.63-38.287,6.82-30.566,23.59-16.5,23.59-16.5,4.61,8.211-6.81,22.876-6.81,22.876-17.61,25.874-4.25,26.935-4.25,26.935,26.06-7.36,25.16-27.48,25.16-27.48,15.77-77.921,91.26-75.421,91.26-75.421L1259.34,475.319s-116.63-97.182-330.783-152.988h0C711.094,281.459,564.4,319.659,564.4,319.659L478.358,55.5s69.393,29.952,50.707,107.219c0,0-9.322,17.83,11.155,35.615,0,0,12.54,4.738,7.549-26.2,0,0-4.142-18.151,3.509-23.615,0,0,21.131-5.574,14.376,25.007,0,0-11.786,30.549-19.48,33.109,0,0,18.443-8.061,28.471-34.581,0,0,3.067-16.25,11.563-5.253,4.322,5.594,5.019,27.3-27.742,39.1,0,0,19.592,1.472,27.295-8.395a54.139,54.139,0,0,0,6.059-11s5.413-7.194,13.18,2.387a43.722,43.722,0,0,1,7.938,17.647,73.207,73.207,0,0,1,.623,24.73s-1.734,12.247-17.9-1.961c0,0-22.819-27.052-35.548-15.2,0,0-12.494,8.108-9.1,21.49l17.506,65.5a46.706,46.706,0,0,1,8.665-3.864s40.714-11.642,94.7-21.14h0s5.519-1,8.649-20.6c0,0,3.728-20.116-5.9-33.085,0,0-4.36-7.749-9.81-6.3-0.693-.728-0.318-9.314,11.015-12.9,0,0,17.1-5.02,30.315-3.456,0,0,10.106-.576,18.008,6.084,0,0,2.43-.467-2.28,14.858,0,0-11.226,48.79,19.688,53.591,0,0,69.813-7.283,160.5,11.36h0s15.853-54.394-34.237-66.072c0,0-30.187-2.669-45.316,11.366-23.134,17.983-13.191,31.882-13.191,31.882S783,254.41,785.291,228.763c2.644-29.614,28.032-62.9,102.505-30.319,0,0-32.153-10.715-45.7-42,0,0-9.112-21.771,10.5-33.511,0,0,18-7.573,30.522,4.788,0,0,17.239,21.294,28.771,31.035,0,0-13.5-8.924-21.647-35.587,0,0-5.309-23.088,19.769-29.384,0,0,20.824-4.858,25.66,12.92,0,0,4.618,11.679,5.363,30.915,0,0,8.18,28.071,7.047-36.332,0,0,1.491-23.972,29.041-25.258,0,0-15.542-24.747,19.909-62.14M942.67,293.638s30.788-63.278,53.314-59.611c0,0,1.774-21.833-17.226-7.15,0,0-27.413,28.972-35.829,61.908,0,0,16.174-71.385,47.631-85.593,0,0-2.52-20.655-15.494-7.584,0,0-19.65,12.684-35.337,89.169,0,0,3.831-52.871,30.927-95.093,0,0-3.977-10.764-11.938-12.547h0c-7.961-1.783-16.113,6.262-16.113,6.262,6.671,49.775-12.221,99.261-12.221,99.261,18.147-75.917,5.722-95.782,5.722-95.782-6.216-17.366-17.233.253-17.233,0.253,22.468,26.282,6.919,97.791,6.919,97.791,6.311-33.4-6.252-71.319-6.252-71.319-10.99-21.4-18.618-.88-18.618-0.88,21.913,6.231,22.888,76.393,23.047,76.726,0,0-2.08,9.356,7.273,11.451C940.573,302.99,942.67,293.638,942.67,293.638ZM560.738,308.591L524.387,196.963s7.425,0.167,12.185,4.778c0,0-1.538,7.277.623,24.731,0,0,1.309,11.565,10.537,35.148,0,0-14.751-31.7-7.711-57.057,0,0,1.972-4.371,7.444-1.406,0,0-5.65,3.98-6.708,21.039,0,0-1.263,8.482,8.916,37.858,0,0-12.463-33.052-3.837-46.967,0,0,4.482-6.749,12.947-3.247,0,0-11.486,2.282-13.5,19.517,0,0-2.381,12.3,12.253,45.777C557.533,277.134,567.521,291.956,560.738,308.591ZM1266.6,467.725l79.46-84.665s-6.59-3.672-12.8-1.53c0,0-1.68,7.221-10.97,22.06,0,0-6.04,9.883-24.25,27.254,0,0,27.5-22.459,31.84-48.334a5.173,5.173,0,0,0-5.93-5.426s2.33,7.091-3.9,22.939c0,0-2.43,8.192-23.93,30.39,0,0,25.09-24.546,23.2-40.768,0,0-1.18-8-10.26-8.427,0,0,9.36,6.936,3.92,23.349,0,0-3.04,12.118-30.26,36.123C1282.72,440.69,1269.33,450.806,1266.6,467.725ZM694.137,161.81c-0.139-2.838.438-10.334,3.618-15.115,4.056-6.128,7.87-9.992,17.5-10.472,6.577-.327,12.043,5.562,12.366,12.185s-3.559,13.926-8.006,16.874c-0.38-7.8-3.787-12.494-12.36-12.067-5.4.27-9.087,4.365-8.89,8.384,2.465-.122,5.123,1.286,5.274,4.36a9.689,9.689,0,0,0-5.136-1.522,12.605,12.605,0,0,0,3.586,8.355c0.354-2.387,1.2-4.325,3.08-4.419,2.232-.111,4.467,2.266,4.6,4.986,0.138,2.838-1.4,5.165-4.215,5.306-4.7.234-9.924-5.551-10.81-14.04l-2.348.117a19.935,19.935,0,0,0,1.285,7.047,11.242,11.242,0,0,1,1.119,3.619c0.081,1.655-1.978,7.685-3.651,12.034-2.086-4.162-4.723-9.958-4.8-11.613a11.28,11.28,0,0,1,.759-3.712,19.937,19.937,0,0,0,.594-7.141l-2.35.117c-0.054,8.536-4.692,14.812-9.389,15.046-2.818.141-4.572-2.023-4.711-4.861-0.132-2.72,1.861-5.307,4.092-5.419,1.879-.093,2.91,1.752,3.5,4.092a12.639,12.639,0,0,0,2.755-8.671,9.7,9.7,0,0,0-4.962,2.025c-0.15-3.074,2.358-4.74,4.823-4.863-0.2-4.02-4.261-7.729-9.663-7.459-8.572.427-11.508,5.433-11.127,13.236-4.712-2.491-9.285-9.374-9.608-16s4.544-13.027,11.12-13.355c9.63-.48,13.8,2.986,18.434,8.681,3.631,4.442,4.934,11.844,5.073,14.682l1.878-.093c-0.328-6.74-3.712-13.327-7.047-18.969-1.542-2.649-3.347-5.878-3.491-8.834-0.173-3.548,1.28-7.532,3.422-11.9,2.028-4.249,4.9-10.556,6.759-15.863,2.367,5.1,5.838,11.087,8.272,15.115,2.557,4.138,4.39,7.958,4.563,11.506,0.145,2.956-1.337,6.349-2.614,9.138-2.771,5.946-5.5,12.838-5.166,19.578ZM1209.25,277.18c1.32-2.508,3.96-9.536,3.11-15.215-1.06-7.27-2.87-12.388-11.33-16.919-5.78-3.094-13.19-.092-16.27,5.763s-2.67,14.113.09,18.672c3.63-6.9,8.68-9.692,16.21-5.658,4.75,2.542,6.34,7.814,4.47,11.368-2.17-1.16-5.15-1.017-6.58,1.7a9.574,9.574,0,0,1,5.26.809,12.527,12.527,0,0,1-6.75,6.033c0.69-2.31.74-4.425-.91-5.309-1.96-1.05-4.98.15-6.24,2.554-1.32,2.509-.92,5.268,1.55,6.595,4.13,2.209,11.28-.8,15.65-8.1l2.07,1.1a19.818,19.818,0,0,1-4.13,5.829,11.167,11.167,0,0,0-2.53,2.8c-0.77,1.462-1.46,7.794-1.79,12.441,3.63-2.878,8.45-7,9.22-8.463a11.285,11.285,0,0,0,.88-3.683,20.006,20.006,0,0,1,2.48-6.713l2.06,1.106c-3.55,7.746-2.02,15.4,2.11,17.607,2.48,1.326,4.97.115,6.29-2.394,1.27-2.4.56-5.593-1.4-6.643-1.65-.884-3.36.346-4.87,2.214a12.7,12.7,0,0,1,1.18-9.016,9.72,9.72,0,0,1,3.61,3.943c1.43-2.717-.12-5.292-2.29-6.452,1.87-3.554,7.09-5.18,11.84-2.638,7.54,4.033,8.07,9.812,4.44,16.71,5.29-.249,12.31-4.532,15.39-10.385s1.4-13.719-4.38-16.814c-8.46-4.531-13.68-3.17-20.25.012-5.14,2.474-9.44,8.617-10.76,11.126l-1.65-.885c3.14-5.957,8.96-10.478,14.34-14.163,2.51-1.741,5.49-3.895,6.87-6.508,1.65-3.136,2.02-7.358,1.94-12.226-0.04-4.708.04-11.635,0.6-17.229-4.28,3.6-9.93,7.548-13.82,10.157-4.04,2.656-7.3,5.332-8.96,8.468-1.37,2.614-1.47,6.313-1.5,9.381-0.01,6.558-.46,13.952-3.6,19.91ZM1072.79,385.67c1.92,0.7,1.91,3.984,4.52,4.019,2,0.358,3.44-.868,3.99-2.936a3.508,3.508,0,0,0-2.41-4.186c-2.39-.992-3.77,1.982-5.79,1.713a2.705,2.705,0,0,1-2.21-1.407,2.328,2.328,0,0,1,2.46-2.549c1.09-.032,1.94.616,2.87,0.46a3.405,3.405,0,0,0,3.48-2.684,3.725,3.725,0,0,0-2.71-4.44,3.48,3.48,0,0,0-4.2,2.706c-0.1.435-.76,5.028-4.07,3.284-1.3-.654-1.08-2.063-0.88-2.931,0.75-1.748,3.02-1.423,3.88-3.69,0.99-2.423-.12-4.313-2.61-4.871a3.29,3.29,0,0,0-4.35,3.313c-0.09,2.439,1.94,3.077,1.88,4.978-0.2.868-.68,2.221-2.05,2.277-3.73.167-2.3-4.253-2.2-4.689a3.579,3.579,0,0,0-2.75-4.263,3.708,3.708,0,0,0-4.25,2.881,3.638,3.638,0,0,0,1.83,3.965c0.89,0.471,1.93.247,2.9,0.741a2.337,2.337,0,0,1,1.15,3.356,2.611,2.611,0,0,1-2.51.349c-2.03-.634-1.93-3.9-4.59-4.126a3.488,3.488,0,0,0-3.88,2.867c-0.47,2.087.32,3.813,2.26,4.429,2.48,1.013,3.78-1.98,5.9-1.779a2.666,2.666,0,0,1,2.1,1.475c0.37,1.175-1.25,2.818-2.47,2.635-1.05-.142-1.92-0.7-2.92-0.653a3.6,3.6,0,0,0-3.33,2.81,3.77,3.77,0,0,0,2.62,4.417,3.605,3.605,0,0,0,4.28-2.6c0.34-1.563.84-4.187,2.98-3.7,1.81,0.4,2.47,1.464,1.81,3.23s-2.72,1.671-3.56,3.854c-0.99,2.42.16,4.139,2.66,4.7s4-.564,4.13-3.177c0.15-2.337-2-3.184-1.94-5.085,0.21-.956.59-2.241,2.06-2.365,3.71-.082,2.39,4.272,2.25,4.88a3.549,3.549,0,0,0,2.68,4.157,3.782,3.782,0,0,0,4.34-2.859,3.6,3.6,0,0,0-2-4c-0.8-.452-1.82-0.316-2.82-0.723-1.2-.269-1.98-2.45-1.14-3.356A2.732,2.732,0,0,1,1072.79,385.67Zm-4.46-1.822a2.562,2.562,0,0,1-3.09,2.137,2.7,2.7,0,0,1-1.98-3.273A2.6,2.6,0,0,1,1068.33,383.848Zm122.4,60.41c1.62,0.476,1.31,3.521,3.27,3.06,1.43-.073,2.37-1.692,2.88-3.792,0.35-1.819.12-3.114-1.2-3.255-1.66-.426-2.86,2.683-4.6,2.626a2.153,2.153,0,0,1-1.98-1.224c-0.31-1.234,1.13-2.921,2.19-2.76,0.96-.134,1.68.419,2.42,0.113,1.35-.257,2.35-1.625,2.59-3.372,0.3-2-.87-4.1-2.72-4.442-1.74-.313-3.12,1.2-3.2,3.478,0.03,0.535-.08,5.549-3.48,3.73-1.35-.688-1.27-2.211-1.21-3.177,0.49-1.95,2.77-1.616,3.01-4.361a5.392,5.392,0,0,0-4.02-5.952c-2.39-.526-3.61,1.157-3.14,4.233,0.45,2.861,2.65,3.634,2.89,5.763-0.07.964-.43,2.412-1.9,2.386-4.04-.068-2.97-4.763-2.98-5.282a5.118,5.118,0,0,0-3.67-4.969,3.531,3.531,0,0,0-4.34,2.806,4.562,4.562,0,0,0,2.46,4.449c1.08,0.62,2.27.512,3.42,1.146,1.41,0.423,2.47,2.721,1.53,3.645a3.2,3.2,0,0,1-2.9.054c-2.38-.909-2.46-4.3-5.65-4.944-2.44-.5-4.13.539-4.54,2.363a4.139,4.139,0,0,0,2.87,4.892c2.95,1.374,4.5-1.428,6.99-.942a3.558,3.558,0,0,1,2.43,1.729c0.41,1.2-1.55,2.587-2.96,2.264-1.21-.263-2.2-0.922-3.38-1.011a3.609,3.609,0,0,0-3.94,2.345,3.742,3.742,0,0,0,2.65,4.44,4.506,4.506,0,0,0,5.07-2c0.59-1.377,1.35-3.789,3.74-3.125,1.99,0.546,2.61,1.569,1.64,3.1-0.99,1.518-3.23,1.28-4.54,3.1-1.52,2.015-.72,3.461,1.76,4.011s4.43-.237,5.17-2.379c0.7-1.922-1.4-2.729-1.04-4.4a2.807,2.807,0,0,1,2.48-2.036c3.83,0.008,1.8,3.821,1.53,4.324a2.346,2.346,0,0,0,1.8,3.48,4.122,4.122,0,0,0,4.42-2.8c0.5-1.547.07-2.8-1.12-3.329-0.62-.313-1.54-0.1-2.41-0.414-1.08-.174-1.59-2.147-0.73-3.032a2.844,2.844,0,0,1,2.44-.551h0Zm-4.14-1.573c-0.42,1.608-1.64,2.2-3.32,1.958a2.594,2.594,0,1,1,1.29-5.006,2.672,2.672,0,0,1,2.03,3.048h0Zm45.87,29.888c0.72,0.617-.41,3.56.3,3.457,0.38,0.22,1.28-.806,2.56-2.625,1.07-1.625,1.59-3.3.84-3.909-0.9-.954-2.37,1.948-3.21,1.747a1.252,1.252,0,0,1-.86-1.29c-0.01-1.227,1.05-2.838,1.71-2.593,0.62-.055.97,0.575,1.5,0.407,0.9-.009,2.01-1.025,2.77-2.725,0.91-1.968.45-4.254-1.16-4.693-1.51-.421-2.83.866-3.14,2.962-0.05.485-.75,5.182-2.63,3.468-0.78-.643-0.65-2.105-0.55-3.011,0.41-1.831,1.9-1.526,2.38-3.963,0.58-2.624-.67-4.67-2.49-5.04-1.69-.329-2.39.993-2.28,3.6,0.15,2.476,1.54,3.158,1.59,5.132-0.08.905-.38,2.31-1.32,2.359-2.63.109-1.67-4.481-1.63-4.892,0.15-2.069-.66-3.807-1.63-4.175-0.87-.328-2.32.645-3.24,2.332a3.483,3.483,0,0,0,.87,4.162c0.73,0.586,1.6.439,2.35,1.011,0.93,0.352,1.5,2.552.79,3.556a1.764,1.764,0,0,1-2.1.245c-1.78-.819-1.42-4.26-3.88-4.887a3.9,3.9,0,0,0-4.74,2.4,4.065,4.065,0,0,0,2.23,5.369c2.58,1.322,4.12-1.8,6.01-1.438a2.167,2.167,0,0,1,1.65,1.6c0.18,1.2-1.4,2.819-2.46,2.615-0.91-.162-1.65-0.771-2.64-0.775a3.733,3.733,0,0,0-3.56,2.788c-0.42,1.922.35,3.957,1.67,4.274,1.44,0.352,3.34-.75,4.24-2.433,0.72-1.449,1.66-4.029,3.23-3.568,1.28,0.374,1.48,1.366.53,3.012-0.99,1.628-2.43,1.627-3.92,3.547-1.71,2.1-1.82,3.369-.4,3.744,1.4,0.357,2.99-.576,4.29-2.754,1.16-1.967.17-2.6,0.8-4.323,0.43-.874,1.02-2.088,1.92-2.265,2.17-.2-0.04,3.756-0.37,4.26-0.92,1.6-1.2,3.1-.7,3.283,0.54,0.189,1.67-1.166,2.65-2.678,0.87-1.372,1.39-2.649,1.14-3.272-0.11-.355-0.55-0.177-0.85-0.486-0.42-.162-0.23-2.133.38-3.036a1.068,1.068,0,0,1,1.36-.5h0Zm-1.95-1.587c-0.47,1.622-1.25,2.284-2.24,2.166-0.86-.174-1.25-1.609-0.92-3.218,0.31-1.232,1.4-2.28,2.26-1.892,0.89,0.213,1.2,1.735.9,2.944h0Zm-98.88-57.876c1.87,0.634,1.82,3.858,4.22,3.595,1.82,0.1,3.09-1.394,3.63-3.478,0.33-1.827-.3-3.308-2.08-3.693-2.21-.727-3.51,2.364-5.47,2.169a2.631,2.631,0,0,1-2.21-1.4,2.372,2.372,0,0,1,2.38-2.673c1.07-.062,1.9.567,2.79,0.343a3.556,3.556,0,0,0,3.23-3.047,3.837,3.837,0,0,0-2.75-4.514,3.4,3.4,0,0,0-3.98,3.041c-0.07.476-.53,5.373-3.93,3.476-1.34-.717-1.16-2.2-1-3.119,0.69-1.841,2.98-1.475,3.7-3.952,0.84-2.657-.4-4.738-2.87-5.286-2.4-.527-4.13.817-4.16,3.583,0,2.584,2.08,3.318,2.1,5.337-0.16.916-.61,2.324-2.01,2.316-3.85-.022-2.49-4.548-2.41-5.01a3.938,3.938,0,0,0-2.9-4.5,3.649,3.649,0,0,0-4.27,2.84,3.854,3.854,0,0,0,1.91,4.1c0.92,0.526,2,.352,3.01.914,1.25,0.343,2.13,2.565,1.26,3.532a2.69,2.69,0,0,1-2.61.19c-2.11-.775-2.06-4.108-4.78-4.439a3.407,3.407,0,0,0-3.92,2.8,3.559,3.559,0,0,0,2.3,4.5c2.55,1.126,3.89-1.805,6.09-1.465a3.11,3.11,0,0,1,2.22,1.646c0.4,1.222-1.3,2.746-2.58,2.48-1.09-.215-2-0.834-3.04-0.845a3.453,3.453,0,0,0-3.42,2.666,3.864,3.864,0,0,0,2.66,4.476,3.669,3.669,0,0,0,4.45-2.32c0.39-1.5.91-4.081,3.15-3.452,1.88,0.526,2.57,1.622,1.84,3.292s-2.86,1.447-3.81,3.468c-1.1,2.24-.05,3.809,2.42,4.353s4.16-.319,4.47-2.656c0.31-2.1-1.87-3-1.75-4.815,0.24-.907.65-2.141,2.16-2.2,3.8,0.066,2.32,4.186,2.15,4.729a3.018,3.018,0,0,0,2.43,3.791,3.88,3.88,0,0,0,4.36-2.8,3.006,3.006,0,0,0-1.75-3.634c-0.75-.386-1.75-0.217-2.72-0.6-1.18-.241-1.94-2.389-1.1-3.292A2.8,2.8,0,0,1,1131.63,413.11Zm-4.47-1.847a2.466,2.466,0,0,1-3.16,2.028,2.92,2.92,0,0,1-2.07-3.434,2.537,2.537,0,0,1,3.18-1.743,2.872,2.872,0,0,1,2.05,3.149h0ZM917.645,337.52c-2.037-.185-3.415,2.773-5.794,1.693-1.962-.527-2.754-2.247-2.379-4.343a3.486,3.486,0,0,1,3.952-2.745c2.591,0.128,2.586,3.394,4.528,4.01a2.71,2.71,0,0,0,2.6-.325,2.322,2.322,0,0,0-1.154-3.342c-0.976-.494-2.019-0.272-2.8-0.811a3.416,3.416,0,0,1-2.024-3.9,3.711,3.711,0,0,1,4.336-2.843,3.5,3.5,0,0,1,2.671,4.229c-0.1.434-1.436,4.852,2.3,4.69,1.454-.034,1.846-1.4,2.038-2.264,0.058-1.893-2.138-2.568-1.965-4.978,0.125-2.6,1.933-3.833,4.428-3.274,2.409,0.54,3.528,2.424,2.54,4.835-0.946,2.236-3.052,1.949-3.8,3.687-0.193.864-.326,2.287,0.889,2.92,3.315,1.741,3.884-2.85,3.98-3.283a3.556,3.556,0,0,1,4.295-2.669,3.711,3.711,0,0,1,2.635,4.4A3.6,3.6,0,0,1,935.592,336c-1,.047-1.854-0.6-2.943-0.567a2.313,2.313,0,0,0-2.459,2.533,2.634,2.634,0,0,0,2.131,1.384c2.1,0.291,3.395-2.687,5.9-1.763a3.5,3.5,0,0,1,2.311,4.237c-0.461,2.077-1.905,3.3-3.923,3.025-2.679-.145-2.59-3.393-4.6-4.115a2.685,2.685,0,0,0-2.533.431c-0.832.9-.05,3.074,1.135,3.43,1.011,0.319,2.034.184,2.924,0.655a3.615,3.615,0,0,1,1.834,3.95,3.755,3.755,0,0,1-4.249,2.86,3.613,3.613,0,0,1-2.777-4.162c0.345-1.556,1-4.129-1.146-4.611-1.807-.4-2.859.267-3,2.14s1.757,2.662,1.6,4.988c-0.128,2.6-1.9,3.658-4.393,3.1s-3.392-2.213-2.4-4.621c0.844-2.172,3.155-2.017,3.9-3.756,0.21-.951.414-2.267-0.868-3.006-3.334-1.657-3.971,2.829-4.106,3.435a3.518,3.518,0,0,1-4.187,2.6,3.785,3.785,0,0,1-2.723-4.421,3.562,3.562,0,0,1,3.5-2.755c0.918-.066,1.787.493,2.86,0.55,1.2,0.269,2.831-1.364,2.458-2.534A2.766,2.766,0,0,0,917.645,337.52Zm4.819,0.26a2.564,2.564,0,0,0,1.9,3.242,2.676,2.676,0,0,0,3.175-2.105,2.634,2.634,0,0,0-2.043-3A2.6,2.6,0,0,0,922.464,337.78Zm-75.57-12.01c-2.037-.185-3.414,2.775-5.794,1.694-1.961-.527-2.753-2.247-2.379-4.343a3.486,3.486,0,0,1,3.952-2.745c2.592,0.128,2.587,3.4,4.529,4.009a2.705,2.705,0,0,0,2.6-.324,2.323,2.323,0,0,0-1.154-3.343c-0.975-.493-2.019-0.272-2.8-0.81a3.416,3.416,0,0,1-2.023-3.9,3.709,3.709,0,0,1,4.335-2.843,3.5,3.5,0,0,1,2.672,4.229c-0.1.434-1.436,4.851,2.3,4.69,1.454-.035,1.846-1.4,2.038-2.264,0.058-1.893-2.138-2.568-1.965-4.978,0.126-2.6,1.934-3.833,4.428-3.274,2.41,0.54,3.529,2.424,2.54,4.835-0.946,2.237-3.051,1.948-3.8,3.686-0.192.865-.325,2.288,0.889,2.92,3.315,1.741,3.884-2.849,3.981-3.282a3.555,3.555,0,0,1,4.294-2.669,3.713,3.713,0,0,1,2.636,4.4,3.6,3.6,0,0,1-3.331,2.794c-1,.046-1.855-0.6-2.943-0.569a2.314,2.314,0,0,0-2.459,2.534,2.632,2.632,0,0,0,2.13,1.384c2.1,0.291,3.395-2.687,5.9-1.762a3.5,3.5,0,0,1,2.31,4.236c-0.461,2.077-1.9,3.3-3.922,3.024-2.679-.145-2.59-3.392-4.6-4.113a2.68,2.68,0,0,0-2.533.431c-0.833.9-.05,3.073,1.134,3.429,1.011,0.318,2.035.184,2.924,0.655a3.613,3.613,0,0,1,1.834,3.95,3.755,3.755,0,0,1-4.248,2.86,3.614,3.614,0,0,1-2.778-4.162c0.346-1.556,1-4.129-1.146-4.611-1.806-.4-2.858.267-3,2.139s1.758,2.663,1.6,4.989c-0.127,2.6-1.9,3.658-4.392,3.1s-3.393-2.213-2.406-4.622c0.844-2.171,3.156-2.016,3.9-3.755,0.211-.951.415-2.267-0.867-3.006-3.335-1.657-3.972,2.829-4.106,3.434a3.518,3.518,0,0,1-4.188,2.6A3.786,3.786,0,0,1,840.272,332a3.564,3.564,0,0,1,3.5-2.755c0.918-.066,1.788.492,2.86,0.549,1.2,0.27,2.831-1.363,2.459-2.533A2.77,2.77,0,0,0,846.894,325.77Zm4.82,0.261a2.564,2.564,0,0,0,1.9,3.242,2.675,2.675,0,0,0,3.175-2.106,2.633,2.633,0,0,0-2.042-3A2.6,2.6,0,0,0,851.714,326.031Zm-77.624-7.347c-2.037-.185-3.415,2.774-5.794,1.694-1.962-.527-2.754-2.247-2.379-4.343a3.486,3.486,0,0,1,3.952-2.745c2.591,0.128,2.586,3.394,4.528,4.01a2.71,2.71,0,0,0,2.6-.325,2.323,2.323,0,0,0-1.154-3.343c-0.976-.493-2.019-0.272-2.8-0.811a3.415,3.415,0,0,1-2.024-3.9,3.711,3.711,0,0,1,4.336-2.843,3.5,3.5,0,0,1,2.671,4.229c-0.1.433-1.436,4.851,2.3,4.69,1.454-.035,1.846-1.4,2.038-2.264,0.058-1.893-2.138-2.568-1.965-4.978,0.125-2.6,1.933-3.833,4.428-3.274,2.409,0.54,3.528,2.424,2.54,4.835-0.946,2.237-3.052,1.948-3.8,3.686-0.193.864-.326,2.288,0.889,2.92,3.314,1.741,3.884-2.849,3.98-3.282a3.555,3.555,0,0,1,4.295-2.669,3.712,3.712,0,0,1,2.635,4.4,3.6,3.6,0,0,1-3.331,2.793c-1,.047-1.854-0.6-2.943-0.568a2.314,2.314,0,0,0-2.459,2.534,2.634,2.634,0,0,0,2.131,1.384c2.1,0.29,3.394-2.688,5.9-1.763a3.5,3.5,0,0,1,2.311,4.237c-0.461,2.077-1.9,3.3-3.923,3.024-2.678-.145-2.59-3.393-4.6-4.113a2.682,2.682,0,0,0-2.533.43c-0.832.9-.05,3.073,1.135,3.43,1.011,0.318,2.034.184,2.924,0.655a3.612,3.612,0,0,1,1.833,3.95,3.753,3.753,0,0,1-4.248,2.859,3.612,3.612,0,0,1-2.777-4.161c0.345-1.556,1-4.129-1.146-4.611-1.807-.4-2.859.266-3,2.139s1.758,2.663,1.6,4.989c-0.128,2.6-1.9,3.658-4.393,3.1s-3.392-2.214-2.4-4.622c0.844-2.171,3.155-2.017,3.9-3.755,0.21-.951.414-2.267-0.868-3.006-3.334-1.657-3.971,2.829-4.106,3.434a3.519,3.519,0,0,1-4.187,2.6,3.785,3.785,0,0,1-2.723-4.421,3.562,3.562,0,0,1,3.5-2.755c0.917-.067,1.787.492,2.86,0.549,1.2,0.27,2.831-1.363,2.458-2.534A2.768,2.768,0,0,0,774.09,318.684Zm4.819,0.261a2.563,2.563,0,0,0,1.9,3.241,2.674,2.674,0,0,0,3.174-2.1,2.632,2.632,0,0,0-2.042-3A2.6,2.6,0,0,0,778.909,318.945ZM642.382,321.2c-1.673-.264-2.671,2.614-4.258,1.363-1.269-.677-1.431-2.532-1-4.64,0.451-1.787,1.2-2.857,2.46-2.422,1.683,0.322,1.463,3.636,3.063,4.325a2.146,2.146,0,0,0,2.308-.262c0.8-.978.215-3.109-0.815-3.416-0.812-.528-1.705-0.339-2.246-0.93a3.663,3.663,0,0,1-.921-4.138,3.823,3.823,0,0,1,4.34-2.845c1.714,0.462,2.324,2.413,1.433,4.5-0.256.468-2.272,5.031,1.585,4.844,1.51-.047,2.083-1.452,2.431-2.349,0.384-1.963-1.827-2.635-.886-5.21a5.365,5.365,0,0,1,6.16-3.648c2.388,0.545,2.791,2.583,1.065,5.154-1.622,2.382-3.944,2.14-5.057,3.957-0.345.9-.634,2.354,0.713,2.958,3.691,1.66,4.7-3.026,4.933-3.488a5.1,5.1,0,0,1,5.425-2.913,3.546,3.546,0,0,1,2.756,4.379,4.525,4.525,0,0,1-4.108,2.96c-1.241.1-2.277-.507-3.591-0.429-1.452-.215-3.388,1.4-2.921,2.634a3.209,3.209,0,0,0,2.6,1.282c2.543,0.2,4.047-2.828,7.212-2.045,2.427,0.594,3.523,2.248,3.12,4.063a4.109,4.109,0,0,1-4.666,3.184c-3.259-.02-3.476-3.2-5.939-3.824a3.578,3.578,0,0,0-2.94.518c-0.875.91,0.32,2.993,1.731,3.3,1.2,0.277,2.387.108,3.5,0.532a3.624,3.624,0,0,1,2.578,3.79,3.714,3.714,0,0,1-4.282,2.866,4.516,4.516,0,0,1-3.748-3.952c0.046-1.492.369-3.992-2.076-4.411-2.034-.355-3.027.3-2.8,2.1,0.253,1.788,2.384,2.527,2.809,4.729,0.522,2.46-.811,3.423-3.292,2.861s-3.917-2.1-3.685-4.345c0.178-2.028,2.426-1.86,2.805-3.519a2.812,2.812,0,0,0-1.394-2.892c-3.478-1.626-3.248,2.674-3.213,3.242a2.332,2.332,0,0,1-3.1,2.368,4.129,4.129,0,0,1-2.824-4.4c0.2-1.607,1.116-2.549,2.419-2.522,0.694-.018,1.442.568,2.365,0.656,1.051,0.3,2.345-1.258,1.938-2.421a2.872,2.872,0,0,0-1.982-1.537h0Zm4.419,0.347c-0.294,1.629.561,2.683,2.187,3.18a2.584,2.584,0,1,0,.939-5.061,2.662,2.662,0,0,0-3.126,1.881h0Zm-52.066,6.838c-0.911.249-1.132,3.381-1.73,2.986-0.436.038-.821-1.271-1.21-3.454-0.289-1.921-.052-3.652.888-3.878,1.221-.475,1.322,2.762,2.177,2.943a1.258,1.258,0,0,0,1.325-.8c0.523-1.1.244-3-.456-3.064-0.546-.316-1.123.1-1.537-0.274-0.81-.391-1.388-1.78-1.357-3.632,0-2.161,1.388-4.024,3.03-3.736,1.549,0.266,2.2,1.989,1.593,4-0.156.46-1.5,4.991,0.926,4.248,0.973-.25,1.473-1.622,1.77-2.478,0.4-1.824-1.08-2.185-.482-4.583,0.579-2.612,2.575-3.922,4.384-3.479,1.668,0.421,1.749,1.913.543,4.213-1.176,2.169-2.727,2.189-3.611,3.944-0.3.852-.626,2.244,0.2,2.689,2.339,1.217,3.4-3.326,3.549-3.71,0.733-1.929,2.2-3.149,3.239-3.068,0.929,0.078,1.832,1.57,1.948,3.479a3.433,3.433,0,0,1-2.547,3.378c-0.909.217-1.636-.286-2.551-0.087-0.991-.079-2.445,1.657-2.218,2.866a1.771,1.771,0,0,0,1.8,1.114c1.959,0.02,3.086-3.232,5.58-2.75a3.917,3.917,0,0,1,3.289,4.182,4.023,4.023,0,0,1-4.294,3.883c-2.9.092-2.975-3.371-4.841-3.854a2.158,2.158,0,0,0-2.169.74c-0.668,1.006.082,3.138,1.128,3.4,0.887,0.239,1.816.006,2.718,0.425a3.733,3.733,0,0,1,2.05,4.027c-0.427,1.912-1.983,3.417-3.322,3.137-1.454-.3-2.7-2.1-2.815-4-0.038-1.611.2-4.336-1.422-4.589-1.318-.209-1.922.6-1.753,2.487,0.207,1.886,1.521,2.5,2.058,4.865,0.658,2.621.228,3.809-1.217,3.543-1.421-.276-2.468-1.793-2.726-4.307-0.224-2.268.94-2.418,1.1-4.236-0.022-.972-0.041-2.314-0.785-2.858-1.885-1.111-1.554,3.4-1.463,3.994,0.158,1.839-.216,3.3-0.757,3.253-0.567-.059-1.022-1.762-1.264-3.537-0.216-1.609-.143-2.978.34-3.436,0.251-.273.579,0.077,0.981-0.073,0.446,0.031,1.106-1.825.934-2.9a1.075,1.075,0,0,0-1.024-1.031h0Zm2.441-.6c-0.26,1.659.171,2.59,1.116,2.9,0.855,0.21,1.815-.916,2.2-2.5,0.24-1.241-.313-2.653-1.25-2.666-0.9-.192-1.824,1.05-2.064,2.266h0Zm111.965-9.459c-1.963-.225-3.281,2.7-5.351,1.437-1.692-.686-2.209-2.57-1.818-4.676,0.473-1.786,1.665-2.854,3.442-2.442,2.315,0.288,2.19,3.627,4.051,4.287a2.624,2.624,0,0,0,2.587-.323,2.355,2.355,0,0,0-1.023-3.417c-0.942-.512-1.965-0.3-2.676-0.882a3.561,3.561,0,0,1-1.648-4.121,3.821,3.821,0,0,1,4.4-2.893,3.4,3.4,0,0,1,2.322,4.433c-0.138.459-1.788,5.066,2.1,4.8,1.516-.075,1.982-1.486,2.226-2.381,0.155-1.951-2.079-2.6-1.69-5.138,0.364-2.749,2.363-4.1,4.843-3.534,2.391,0.544,3.4,2.493,2.257,5-1.093,2.326-3.292,2.1-4.159,3.912-0.241.894-.433,2.352,0.846,2.943,3.5,1.62,4.178-3.036,4.3-3.485a3.91,3.91,0,0,1,4.533-2.823,3.654,3.654,0,0,1,2.67,4.376,3.823,3.823,0,0,1-3.463,2.879c-1.057.081-1.956-.532-3.113-0.458-1.276-.223-3.013,1.4-2.633,2.645a2.709,2.709,0,0,0,2.286,1.283c2.241,0.2,3.606-2.822,6.208-1.962a3.414,3.414,0,0,1,2.372,4.192,3.529,3.529,0,0,1-3.99,3.072c-2.788-.072-2.762-3.28-4.9-3.914a3.1,3.1,0,0,0-2.7.541c-0.878.929,0.021,3.027,1.29,3.33,1.082,0.273,2.165.1,3.111,0.534a3.447,3.447,0,0,1,1.977,3.857,3.839,3.839,0,0,1-4.3,2.9,3.683,3.683,0,0,1-3.054-3.985c0.279-1.515.9-4.064-1.4-4.451-1.927-.327-3.012.366-3.06,2.18s1.981,2.522,1.99,4.747c0.058,2.487-1.557,3.454-4.034,2.889s-3.632-2.058-2.928-4.3c0.6-2.026,2.958-1.9,3.622-3.591,0.161-.921.313-2.2-1.032-2.9-3.477-1.561-3.876,2.78-3.944,3.344a3,3,0,0,1-3.807,2.378,3.9,3.9,0,0,1-2.774-4.381,2.98,2.98,0,0,1,3.117-2.529c0.848-.026,1.683.552,2.727,0.624,1.171,0.286,2.763-1.328,2.389-2.5A2.831,2.831,0,0,0,709.141,318.329Zm4.833,0.241c-0.383,1.655.413,2.7,2.006,3.171a2.91,2.91,0,0,0,3.334-2.208,2.552,2.552,0,0,0-2.15-2.926,2.845,2.845,0,0,0-3.19,1.963h0Zm272.555,38.592c-2.038-.185-3.415,2.775-5.795,1.7-1.961-.528-2.753-2.247-2.379-4.344a3.487,3.487,0,0,1,3.953-2.745c2.591,0.128,2.586,3.4,4.528,4.01a2.71,2.71,0,0,0,2.6-.325,2.323,2.323,0,0,0-1.155-3.343c-0.975-.493-2.018-0.271-2.8-0.81a3.416,3.416,0,0,1-2.024-3.9,3.71,3.71,0,0,1,4.335-2.843,3.5,3.5,0,0,1,2.672,4.229c-0.1.433-1.436,4.851,2.3,4.69,1.454-.035,1.845-1.4,2.037-2.264,0.059-1.893-2.137-2.568-1.964-4.978,0.125-2.6,1.933-3.832,4.428-3.274,2.409,0.54,3.523,2.424,2.54,4.835-0.946,2.237-3.052,1.948-3.8,3.687-0.192.863-.325,2.287,0.89,2.919,3.313,1.741,3.883-2.849,3.983-3.283a3.548,3.548,0,0,1,4.29-2.668,3.711,3.711,0,0,1,2.64,4.4,3.607,3.607,0,0,1-3.33,2.793c-1.01.047-1.86-.6-2.95-0.567a2.314,2.314,0,0,0-2.456,2.533A2.63,2.63,0,0,0,1001.2,359c2.11,0.291,3.4-2.688,5.9-1.763a3.5,3.5,0,0,1,2.32,4.237c-0.47,2.077-1.91,3.3-3.93,3.024-2.68-.145-2.59-3.393-4.59-4.114a2.688,2.688,0,0,0-2.536.431c-0.832.9-.05,3.073,1.134,3.43,1.012,0.319,2.032.184,2.922,0.655a3.624,3.624,0,0,1,1.84,3.95,3.762,3.762,0,0,1-4.25,2.86,3.614,3.614,0,0,1-2.78-4.161c0.346-1.557,1.006-4.13-1.145-4.612-1.807-.4-2.859.267-3,2.14s1.758,2.662,1.6,4.988c-0.128,2.6-1.9,3.658-4.393,3.1s-3.393-2.214-2.405-4.621c0.844-2.172,3.155-2.017,3.9-3.756,0.211-.951.415-2.267-0.867-3.006-3.334-1.657-3.971,2.829-4.106,3.435a3.517,3.517,0,0,1-4.187,2.6,3.783,3.783,0,0,1-2.723-4.42,3.562,3.562,0,0,1,3.5-2.755c0.917-.066,1.787.492,2.86,0.549,1.2,0.27,2.83-1.363,2.458-2.533A2.768,2.768,0,0,0,986.529,357.162Zm4.819,0.261a2.563,2.563,0,0,0,1.9,3.241,2.674,2.674,0,0,0,3.175-2.1,2.632,2.632,0,0,0-2.042-3A2.6,2.6,0,0,0,991.348,357.423ZM1226.2,509.905C908.84,292.656,584.412,367.173,584.412,367.173s-9.137,1.521-10.347-8.465c-1.122-9.258,12.739-11.491,12.739-11.491s326.329-73.9,643.686,143.348c0,0,10.3,5.923,6.93,14.681-3.72,9.67-11.22,4.659-11.22,4.659"/>
</svg>
